<svg width="242" height="98" viewBox="0 0 242 98" fill="none" xmlns="http://www.w3.org/2000/svg">
<path d="M212.249 59V34.28H233.801C236.617 34.28 238.665 34.984 239.945 36.392C241.257 37.768 241.913 39.592 241.913 41.864V59H234.953V42.68C234.953 40.76 233.993 39.8 232.073 39.8H219.209V59H212.249Z" fill="white"/>
<path d="M187.234 59.24C182.946 59.24 179.602 58.184 177.202 56.072C174.802 53.928 173.602 50.792 173.602 46.664C173.602 42.504 174.802 39.368 177.202 37.256C179.602 35.112 182.946 34.04 187.234 34.04H199.234C202.05 34.04 204.194 34.712 205.666 36.056C207.17 37.368 207.922 39.256 207.922 41.72C207.922 46.744 205.026 49.256 199.234 49.256H181.09C181.762 52.232 183.81 53.72 187.234 53.72H206.674V59.24H187.234ZM187.234 39.56C183.938 39.56 181.906 40.952 181.138 43.736H198.898C199.538 43.736 200.034 43.544 200.386 43.16C200.77 42.776 200.962 42.248 200.962 41.576C200.962 40.232 200.274 39.56 198.898 39.56H187.234Z" fill="white"/>
<path d="M138.746 59L148.058 46.664L138.746 34.328H146.906L154.058 43.88H157.562L164.762 34.328H172.874L163.61 46.664L172.874 59H164.762L157.514 49.4H154.058L146.906 59H138.746Z" fill="white"/>
<path d="M110.216 59C107.624 59 105.64 58.344 104.264 57.032C102.888 55.72 102.2 53.848 102.2 51.416C102.2 49.016 102.888 47.16 104.264 45.848C105.64 44.536 107.624 43.88 110.216 43.88H128.648V42.728C128.648 40.776 127.688 39.8 125.768 39.8H105.416V34.28H127.592C130.504 34.28 132.568 34.952 133.784 36.296C135 37.608 135.608 39.464 135.608 41.864V59H110.216ZM111.464 53.48H128.648V49.4H111.464C110.856 49.4 110.376 49.592 110.024 49.976C109.704 50.328 109.544 50.808 109.544 51.416C109.544 52.024 109.704 52.52 110.024 52.904C110.376 53.288 110.856 53.48 111.464 53.48Z" fill="white"/>
<path d="M86.839 63.3235L91.8624 68.1985L69.5764 91.1624L64.5531 86.2873L86.839 63.3235ZM86.8178 61.9094L34.2948 10.9369C33.8985 10.5523 33.2654 10.5618 32.8807 10.9581L10.5948 33.922C10.2102 34.3183 10.2197 34.9514 10.616 35.336L63.139 86.3085C63.5354 86.6931 64.1685 86.6836 64.5531 86.2873L69.5764 91.1624C66.4994 94.333 61.4346 94.4089 58.264 91.3318L5.74097 40.3594C2.57032 37.2823 2.49444 32.2176 5.57148 29.0469L27.8574 6.08307L28.1521 5.79482C31.2497 2.911 36.0984 2.93282 39.1698 5.91361L91.6929 56.8861C94.7643 59.8669 94.9321 64.7134 92.1424 67.896L91.8624 68.1985L86.839 63.3235C87.2236 62.9271 87.2141 62.294 86.8178 61.9094Z" fill="url(#paint0_linear_74_8)"/>
<path d="M33.76 86.645L28.8512 91.6355L6.03789 69.1955L10.9466 64.2051L33.76 86.645ZM35.1742 86.6334L86.4989 34.4545C86.8862 34.0608 86.881 33.4276 86.4872 33.0403L63.6739 10.6004C63.2801 10.2131 62.647 10.2184 62.2597 10.6121L10.935 62.7909C10.5477 63.1847 10.5529 63.8178 10.9466 64.2051L6.03789 69.1955C2.88802 66.0972 2.84623 61.0321 5.94454 57.8822L57.2693 5.70335C60.3676 2.55348 65.4327 2.51168 68.5826 5.60998L91.396 28.0499L91.6822 28.3466C94.5452 31.4635 94.4907 36.3119 91.4893 39.3632L40.1646 91.5421C37.1632 94.5934 32.3156 94.7286 29.1519 91.9175L28.8512 91.6355L33.76 86.645C34.1537 87.0323 34.7869 87.0271 35.1742 86.6334Z" fill="url(#paint1_linear_74_8)"/>
<path d="M42 47.364L48.364 41L54.7279 47.364L48.364 53.7279L42 47.364Z" fill="url(#paint2_linear_74_8)"/>
<defs>
<linearGradient id="paint0_linear_74_8" x1="49" y1="19.3421" x2="49" y2="79.3421" gradientUnits="userSpaceOnUse">
<stop stop-color="#C1111E"/>
<stop offset="1" stop-color="#659ABA"/>
</linearGradient>
<linearGradient id="paint1_linear_74_8" x1="49" y1="16.3421" x2="49" y2="79.3421" gradientUnits="userSpaceOnUse">
<stop offset="0.0626963" stop-color="#C1111E"/>
<stop offset="1" stop-color="#659ABA"/>
</linearGradient>
<linearGradient id="paint2_linear_74_8" x1="48.0533" y1="41.0533" x2="48.0533" y2="51.5533" gradientUnits="userSpaceOnUse">
<stop stop-color="#C1111E"/>
<stop offset="0.942307" stop-color="#93566C"/>
</linearGradient>
</defs>
</svg>
