<svg width="98" height="98" viewBox="0 0 98 98" fill="none" xmlns="http://www.w3.org/2000/svg">
<path d="M86.839 63.3235L91.8624 68.1985L69.5764 91.1624L64.5531 86.2873L86.839 63.3235ZM86.8178 61.9094L34.2948 10.9369C33.8985 10.5523 33.2654 10.5618 32.8807 10.9581L10.5948 33.922C10.2102 34.3183 10.2197 34.9514 10.616 35.336L63.139 86.3085C63.5354 86.6931 64.1685 86.6836 64.5531 86.2873L69.5764 91.1624C66.4994 94.333 61.4346 94.4089 58.264 91.3318L5.74097 40.3594C2.57032 37.2823 2.49444 32.2176 5.57148 29.0469L27.8574 6.08307C30.9344 2.91243 35.9992 2.83656 39.1698 5.91361L91.6929 56.8861C94.8635 59.9631 94.9394 65.0279 91.8624 68.1985L86.839 63.3235C87.2236 62.9271 87.2141 62.294 86.8178 61.9094Z" fill="url(#paint0_linear_74_7)"/>
<path d="M33.76 86.645L28.8512 91.6355L6.03789 69.1955L10.9466 64.2051L33.76 86.645ZM35.1742 86.6334L86.4989 34.4545C86.8862 34.0608 86.881 33.4276 86.4872 33.0403L63.6739 10.6004C63.2801 10.2131 62.647 10.2184 62.2597 10.6121L10.935 62.7909C10.5477 63.1847 10.5529 63.8178 10.9466 64.2051L6.03789 69.1955C2.88802 66.0972 2.84623 61.0321 5.94454 57.8822L57.2693 5.70335C60.3676 2.55348 65.4327 2.51168 68.5826 5.60998L91.396 28.0499C94.5458 31.1482 94.5876 36.2134 91.4893 39.3632L40.1646 91.5421C37.0663 94.692 32.0011 94.7338 28.8512 91.6355L33.76 86.645C34.1537 87.0323 34.7869 87.0271 35.1742 86.6334Z" fill="url(#paint1_linear_74_7)"/>
<path d="M42 47.364L48.364 41L54.7279 47.364L48.364 53.7279L42 47.364Z" fill="url(#paint2_linear_74_7)"/>
<defs>
<linearGradient id="paint0_linear_74_7" x1="49" y1="19.3421" x2="49" y2="79.3421" gradientUnits="userSpaceOnUse">
<stop stop-color="#C1111E"/>
<stop offset="1" stop-color="#659ABA"/>
</linearGradient>
<linearGradient id="paint1_linear_74_7" x1="49" y1="16.3421" x2="49" y2="79.3421" gradientUnits="userSpaceOnUse">
<stop offset="0.0626963" stop-color="#C1111E"/>
<stop offset="1" stop-color="#659ABA"/>
</linearGradient>
<linearGradient id="paint2_linear_74_7" x1="48.0533" y1="41.0533" x2="48.0533" y2="51.5533" gradientUnits="userSpaceOnUse">
<stop stop-color="#C1111E"/>
<stop offset="0.942307" stop-color="#93566C"/>
</linearGradient>
</defs>
</svg>
